<svg xmlns="http://www.w3.org/2000/svg" xmlns:xlink="http://www.w3.org/1999/xlink" viewBox="0 0 1984.25 1275.59"><defs><style>.cls-1{fill:url(#未命名的渐变_1152);}.cls-2{fill:url(#未命名的渐变_954);}.cls-3{fill:url(#未命名的渐变_43);}.cls-4{fill:#fff;}.cls-5{fill:url(#未命名的渐变_1176);}.cls-6{fill:url(#未命名的渐变_1182);}.cls-7{fill:url(#未命名的渐变_1184);}.cls-8{fill:#535353;opacity:0.5;}</style><linearGradient id="未命名的渐变_1152" x1="314.54" y1="1238.24" x2="1472.74" y2="211.9" gradientUnits="userSpaceOnUse"><stop offset="0" stop-color="#df695d"/><stop offset="0.22" stop-color="#e06d5d"/><stop offset="0.44" stop-color="#e4785d"/><stop offset="0.64" stop-color="#ea8b5d"/><stop offset="0.85" stop-color="#f3a65e"/><stop offset="0.92" stop-color="#f6b15e"/></linearGradient><radialGradient id="未命名的渐变_954" cx="1443.19" cy="284.02" r="194.14" gradientUnits="userSpaceOnUse"><stop offset="0" stop-color="#ea7c7f"/><stop offset="0.28" stop-color="#eb7f82" stop-opacity="0.99"/><stop offset="0.46" stop-color="#ec8a8d" stop-opacity="0.95"/><stop offset="0.61" stop-color="#ef9d9f" stop-opacity="0.88"/><stop offset="0.76" stop-color="#f3b7b8" stop-opacity="0.78"/><stop offset="0.88" stop-color="#f9d8d9" stop-opacity="0.65"/><stop offset="1" stop-color="#fff" stop-opacity="0.5"/></radialGradient><radialGradient id="未命名的渐变_43" cx="1443.19" cy="284.02" r="152.41" gradientUnits="userSpaceOnUse"><stop offset="0" stop-color="#ea7c7f"/><stop offset="0.17" stop-color="#eb8285" stop-opacity="0.98"/><stop offset="0.38" stop-color="#ee9497" stop-opacity="0.91"/><stop offset="0.6" stop-color="#f3b2b4" stop-opacity="0.79"/><stop offset="0.83" stop-color="#f9dbdc" stop-opacity="0.64"/><stop offset="1" stop-color="#fff" stop-opacity="0.5"/></radialGradient><linearGradient id="未命名的渐变_1176" x1="591.89" y1="889.72" x2="704.6" y2="424.61" gradientUnits="userSpaceOnUse"><stop offset="0" stop-color="#93866e"/><stop offset="0.43" stop-color="#958870"/><stop offset="0.61" stop-color="#9c8e75"/><stop offset="0.73" stop-color="#a8997f"/><stop offset="0.84" stop-color="#baa98c"/><stop offset="0.93" stop-color="#d0bd9d"/><stop offset="1" stop-color="#e8d2b0"/></linearGradient><linearGradient id="未命名的渐变_1182" x1="581.36" y1="1168.24" x2="618.93" y2="847.17" xlink:href="#未命名的渐变_1176"/><linearGradient id="未命名的渐变_1184" x1="1211.67" y1="1053.05" x2="1204.77" y2="689.88" gradientUnits="userSpaceOnUse"><stop offset="0" stop-color="#93866e"/><stop offset="0.21" stop-color="#a09178"/><stop offset="0.59" stop-color="#c1af92"/><stop offset="0.97" stop-color="#e8d2b0"/></linearGradient></defs><g id="背景"><rect class="cls-1" width="1984.25" height="1275.59"/></g><g id="太阳"><circle class="cls-2" cx="1443.19" cy="284.02" r="194.14"/><circle class="cls-3" cx="1443.19" cy="284.02" r="152.41"/><circle class="cls-4" cx="1443.19" cy="284.02" r="107.77"/></g><g id="山脉"><path class="cls-5" d="M562.87,296.46c-219.6,0-418.49,37.44-562.87,98V873.15c144.38,60.59,343.27,98,562.87,98,441.1,0,798.69-151,798.69-337.36S1004,296.46,562.87,296.46Z" transform="translate(0)"/><path class="cls-6" d="M500.06,787.75C304.53,787.75,127.62,822.39,0,878.3v396.38H1068.54c85.42-50.66,135.87-113.16,135.87-180.79C1204.41,924.82,889.06,787.75,500.06,787.75Z" transform="translate(0)"/><path class="cls-7" d="M1984.25,1274.68V568.31c-95.87-9.49-196.06-14.52-299.15-14.52-693.13,0-1255,227.28-1255,507.64,0,76.16,41.49,148.41,115.8,213.25Z" transform="translate(0)"/></g><g id="松树"><polygon class="cls-8" points="350.76 686.45 388.1 728.5 313.42 728.5 350.76 686.45"/><polygon class="cls-8" points="350.76 707.48 394.16 749.53 307.36 749.53 350.76 707.48"/><polygon class="cls-8" points="350.76 728.5 396.98 770.56 304.55 770.56 350.76 728.5"/><rect class="cls-8" x="346.45" y="760.21" width="8.63" height="66.14"/><polygon class="cls-8" points="263.52 749.53 305.7 797.05 221.33 797.05 263.52 749.53"/><polygon class="cls-8" points="263.52 773.29 312.55 820.8 214.49 820.8 263.52 773.29"/><polygon class="cls-8" points="263.52 797.05 315.73 844.56 211.3 844.56 263.52 797.05"/><rect class="cls-8" x="258.64" y="832.87" width="9.75" height="74.73"/><polygon class="cls-8" points="448.4 728.5 485.74 770.56 411.06 770.56 448.4 728.5"/><polygon class="cls-8" points="448.4 749.53 491.8 791.59 405 791.59 448.4 749.53"/><polygon class="cls-8" points="448.4 770.56 494.62 812.62 402.19 812.62 448.4 770.56"/><rect class="cls-8" x="444.09" y="802.27" width="8.63" height="66.14"/><polygon class="cls-8" points="1849.23 524.84 1867.9 545.87 1830.56 545.87 1849.23 524.84"/><polygon class="cls-8" points="1849.23 535.35 1870.93 556.38 1827.53 556.38 1849.23 535.35"/><polygon class="cls-8" points="1849.23 545.87 1872.33 566.89 1826.12 566.89 1849.23 545.87"/><rect class="cls-8" x="1847.07" y="561.72" width="4.31" height="33.07"/><polygon class="cls-8" points="1360.1 559.82 1378.77 580.84 1341.43 580.84 1360.1 559.82"/><polygon class="cls-8" points="1360.1 570.33 1381.8 591.36 1338.4 591.36 1360.1 570.33"/><polygon class="cls-8" points="1360.1 580.84 1383.2 601.87 1336.99 601.87 1360.1 580.84"/><rect class="cls-8" x="1357.94" y="596.7" width="4.31" height="33.07"/><polygon class="cls-8" points="1313.88 598.84 1332.55 619.87 1295.21 619.87 1313.88 598.84"/><polygon class="cls-8" points="1313.88 609.36 1335.58 630.38 1292.18 630.38 1313.88 609.36"/><polygon class="cls-8" points="1313.88 619.87 1336.99 640.9 1290.78 640.9 1313.88 619.87"/><rect class="cls-8" x="1311.73" y="635.72" width="4.31" height="33.07"/></g></svg>